<svg xmlns="http://www.w3.org/2000/svg" viewBox="0 0 511.999 511.999"><path d="M437.081 120.159c-48.365-48.365-112.675-75.001-181.084-75.001-68.405 0-132.728 26.635-181.119 75.006-86.215 86.258-99.573 222.315-31.772 323.513a23.284 23.284 0 0 0 19.343 10.321h387.087a23.278 23.278 0 0 0 19.337-10.318c67.836-101.206 54.465-237.266-31.792-323.521z" fill="#d1f4ff"/><path d="M437.081 120.159C388.946 72.024 325.019 45.423 256.977 45.17V454h192.559a23.278 23.278 0 0 0 19.337-10.318c67.836-101.208 54.465-237.268-31.792-323.523z" fill="#a7e5ff"/><path d="M357.421 209.099c-9.09-9.09-23.832-9.09-32.924 0l-66.389 66.389a44.282 44.282 0 0 0-10.228-1.204c-24.435 0-44.316 19.899-44.316 44.357s19.88 44.357 44.316 44.357c24.457 0 44.357-19.899 44.357-44.357 0-3.522-.424-6.944-1.206-10.23l66.389-66.389c9.094-9.091 9.094-23.833.001-32.923z" fill="#e68842"/><path d="M256.977 138.279c-12.859 0-23.281-10.424-23.281-23.281V69.989c0-12.857 10.422-23.281 23.281-23.281 12.856 0 23.281 10.424 23.281 23.281v45.009c0 12.858-10.425 23.281-23.281 23.281z" fill="#387896"/><path d="M487.256 325.161h-45.009c-12.859 0-23.281-10.424-23.281-23.281s10.422-23.281 23.281-23.281h45.009c12.856 0 23.281 10.424 23.281 23.281s-10.426 23.281-23.281 23.281z" fill="#275366"/><g fill="#387896"><path d="M69.752 325.161H24.743c-12.859 0-23.281-10.424-23.281-23.281s10.422-23.28 23.281-23.28h45.009c12.856 0 23.281 10.424 23.281 23.281s-10.425 23.28-23.281 23.28zM124.305 193.467a23.2 23.2 0 0 1-16.463-6.82l-32.925-32.92c-9.09-9.092-9.09-23.832 0-32.925 9.09-9.09 23.832-9.09 32.924 0l32.924 32.924c9.093 9.09 9.093 23.83 0 32.924a23.205 23.205 0 0 1-16.46 6.817z"/></g><g fill="#275366"><path d="M387.695 193.467a23.21 23.21 0 0 1-16.464-6.818c-9.09-9.092-9.09-23.832 0-32.925l32.924-32.925c9.093-9.092 23.829-9.092 32.924-.002 9.09 9.09 9.093 23.832.003 32.924l-32.924 32.927a23.211 23.211 0 0 1-16.463 6.819zM256.977 46.709v91.571c12.856 0 23.281-10.424 23.281-23.281v-45.01c0-12.857-10.425-23.28-23.281-23.28z"/></g><path d="M357.421 209.099l-140.88 140.878c8.027 8.041 19.112 13.023 31.337 13.023 24.457 0 44.357-19.899 44.357-44.358 0-3.522-.424-6.944-1.206-10.23l66.389-66.389c9.096-9.092 9.096-23.834.003-32.924z" fill="#dd4c42"/><path d="M360.925 420.28h-209.85c-12.856 0-23.281 10.424-23.281 23.281s10.425 23.281 23.281 23.281h209.851c12.859 0 23.281-10.424 23.281-23.281s-10.423-23.281-23.282-23.281z" fill="#387896"/><path d="M360.925 420.28H256.977v46.561h103.948c12.859 0 23.281-10.424 23.281-23.281s-10.422-23.28-23.281-23.28z" fill="#275366"/></svg>