<svg xmlns="http://www.w3.org/2000/svg" viewBox="0 0 56 56"><path d="M49.455 8C48.724 3.538 38.281 0 25.5 0S2.276 3.538 1.545 8H1.5v37h.045c.731 4.461 11.175 8 23.955 8s23.224-3.539 23.955-8h.045V8h-.045z" fill="#545e73"/><g fill="#38454f"><path d="M25.5 41c-13.255 0-24-3.806-24-8.5V45h.045c.731 4.461 11.175 8 23.955 8s23.224-3.539 23.955-8h.045V32.5c0 4.694-10.745 8.5-24 8.5zM1.5 32v.5c0-.168.018-.334.045-.5H1.5zM49.455 32c.027.166.045.332.045.5V32h-.045z"/></g><g fill="#556080"><path d="M25.5 29c-13.255 0-24-3.806-24-8.5V33h.045c.731 4.461 11.175 8 23.955 8s23.224-3.539 23.955-8h.045V20.5c0 4.694-10.745 8.5-24 8.5zM1.5 20v.5c0-.168.018-.334.045-.5H1.5zM49.455 20c.027.166.045.332.045.5V20h-.045z"/></g><ellipse cx="25.5" cy="8.5" rx="24" ry="8.5" fill="#91bae1"/><g fill="#8697cb"><path d="M25.5 17c-13.255 0-24-3.806-24-8.5V21h.045c.731 4.461 11.175 8 23.955 8s23.224-3.539 23.955-8h.045V8.5c0 4.694-10.745 8.5-24 8.5zM1.5 8v.5c0-.168.018-.334.045-.5H1.5zM49.455 8c.027.166.045.332.045.5V8h-.045z"/></g><path d="M49.545 45.111C49.494 41.175 46.382 38 42.546 38c-2.568 0-4.806 1.426-6.025 3.546a4.201 4.201 0 0 0-1.337-.22c-2.063 0-3.785 1.492-4.208 3.484A5.382 5.382 0 0 0 28 49.641C28 52.589 30.343 55 33.208 55h10.775c.061 0 .119-.007.18-.009.06.002.119.009.18.009h4.31c2.667 0 4.849-2.245 4.849-4.989-.002-2.43-1.714-4.465-3.957-4.9z" fill="#48a0dc"/><path d="M48.651 56h-4.31c-.063 0-.126-.004-.188-.008a2.05 2.05 0 0 1-.171.008H33.208C29.785 56 27 53.147 27 49.642c0-2.262 1.209-4.372 3.116-5.503.686-2.235 2.746-3.813 5.066-3.813.296 0 .592.025.884.076C37.562 38.286 39.98 37 42.546 37c4.102 0 7.524 3.225 7.954 7.332 2.358.806 4 3.079 4 5.679 0 3.302-2.624 5.989-5.849 5.989zm-4.537-2.009l.186.006 4.351.003c2.122 0 3.849-1.79 3.849-3.989 0-1.917-1.323-3.564-3.146-3.919l-.799-.155-.011-.813C48.501 41.747 45.811 39 42.546 39c-2.135 0-4.063 1.139-5.158 3.045l-.409.711-.777-.261a3.184 3.184 0 0 0-1.019-.169c-1.54 0-2.898 1.133-3.229 2.692l-.102.475-.435.214C29.948 46.432 29 47.976 29 49.642 29 52.045 30.888 54 33.208 54l10.906-.009z" fill="#b1d3ef"/></svg>