<svg xmlns="http://www.w3.org/2000/svg" viewBox="0 0 512 512"><path d="M141.694 336.659C63.564 336.659 0 273.095 0 194.966c0-35.123 12.947-68.819 36.456-94.881 6.489-7.194 17.584-7.766 24.779-1.276s7.766 17.585 1.276 24.78c-17.682 19.603-27.422 44.951-27.422 71.378 0 58.782 47.823 106.605 106.605 106.605 9.69 0 17.545 7.855 17.545 17.545-.001 9.687-7.856 17.542-17.545 17.542z" fill="#f7da70"/><path d="M141.694 301.57c-13.967 0-27.311-2.704-39.545-7.609a77.217 77.217 0 0 0-27.086 26.022c19.874 10.635 42.56 16.677 66.633 16.677 9.69 0 17.545-7.855 17.545-17.545-.003-9.69-7.858-17.545-17.547-17.545z" opacity=".1"/><path d="M320.979 495.067c-15.807 0-28.62-12.814-28.62-28.62V360.73h57.24v105.717c-.001 15.807-12.813 28.62-28.62 28.62z" fill="#f7da70"/><path d="M349.598 445.448c-21.123 0-38.246-17.123-38.246-38.246 0-21.122 17.123-38.246 38.246-38.246v76.492z" fill="#7d7060"/><path d="M320.979 495.067c-15.807 0-28.62-12.814-28.62-28.62V360.73h57.24v105.717c-.001 15.807-12.813 28.62-28.62 28.62z" opacity=".08"/><path d="M288.543 283.843H173.025c-42.463 0-76.887 34.424-76.887 76.887v105.717c0 15.807 12.814 28.62 28.62 28.62s28.62-12.814 28.62-28.62v-31.373a76.991 76.991 0 0 0 19.647 2.543h36.494v28.83c0 15.807 12.814 28.62 28.62 28.62 15.807 0 28.62-12.814 28.62-28.62v-28.87c48.184-.843 86.991-40.141 86.991-88.527 0-36.012-29.194-65.207-65.207-65.207z" fill="#f7da70"/><path d="M96.491 353.446a77.595 77.595 0 0 0-.353 7.285v62.94c19.394 0 35.116-15.722 35.116-35.116 0-19.277-15.532-34.919-34.763-35.109z" fill="#7d7060"/><path d="M288.543 283.843H173.025c-20.397 0-38.924 7.957-52.687 20.918 22.103 39.884 66.925 67.703 119.534 67.703h110.727a88.59 88.59 0 0 0 3.151-23.413c0-36.013-29.194-65.208-65.207-65.208z" opacity=".08"/><path d="M465.061 18.122l-.009.002a583.337 583.337 0 0 0-97.426 34.286c-17.425-4.645-35.793-7.131-54.724-7.131-18.932 0-37.3 2.486-54.724 7.131a583.216 583.216 0 0 0-97.426-34.286l-.01-.002c-24.601-6.272-48.227 13.111-46.885 38.463a583.195 583.195 0 0 0 15.127 104.555 172.36 172.36 0 0 0-12.168 43.83c-10.345 74.35 52.189 140.202 133.139 140.202H375.85c80.949 0 143.484-65.852 133.139-140.202a172.364 172.364 0 0 0-12.168-43.829 583.22 583.22 0 0 0 15.126-104.555c1.342-25.353-22.285-44.736-46.886-38.464z" fill="#f7da70"/><g fill="#4a5058"><path d="M231.399 193.183a8.142 8.142 0 0 1-8.142-8.142v-12.975a8.142 8.142 0 0 1 8.142-8.142 8.142 8.142 0 0 1 8.142 8.142v12.975a8.142 8.142 0 0 1-8.142 8.142zM394.4 193.183a8.142 8.142 0 0 1-8.142-8.142v-12.975a8.142 8.142 0 0 1 8.142-8.142 8.142 8.142 0 0 1 8.142 8.142v12.975a8.142 8.142 0 0 1-8.142 8.142z"/></g><path d="M284.615 223.892v56.149c0 15.621 12.663 28.285 28.285 28.285 15.621 0 28.285-12.664 28.285-28.285v-56.149h-56.57z" fill="#edbcb9"/><path d="M312.899 282.378a8.142 8.142 0 0 1-8.142-8.142v-46.44a8.142 8.142 0 0 1 8.142-8.142 8.142 8.142 0 0 1 8.142 8.142v46.44a8.141 8.141 0 0 1-8.142 8.142z" opacity=".1"/><path d="M360.243 263.901c-36.695 0-47.343-26.153-47.343-37.348 0 11.195-10.648 37.348-47.343 37.348l-22.702-65.543h140.089l-22.701 65.543z" fill="#f7da70"/><path d="M453.035 59.279l-.004.001a260.152 260.152 0 0 0-44.866 15.938c-6.781 3.135-8.646 11.907-3.727 17.529a181.93 181.93 0 0 0 46.164 37.874c6.475 3.727 14.715.183 16.463-7.08l.001-.005a259.973 259.973 0 0 0 6.863-47.115c.6-11.298-9.93-19.938-20.894-17.142z" fill="#f4b759"/><path d="M160.748 18.124l-.01-.002c-15.454-3.941-30.519 2.247-39.255 13.675 6.058 27.489 30.549 48.061 59.859 48.061 25.001 0 46.493-14.973 56.035-36.433a583.423 583.423 0 0 0-76.629-25.301z" fill="#7d7060"/><path d="M151.87 76.421a259.836 259.836 0 0 0 6.863 47.115l.001.005c1.749 7.263 9.988 10.807 16.463 7.08a181.874 181.874 0 0 0 46.165-37.874c4.92-5.622 3.055-14.394-3.727-17.529a259.954 259.954 0 0 0-44.866-15.938l-.004-.001c-10.964-2.796-21.494 5.844-20.895 17.142z" fill="#f4b759"/><g fill="#4a5058"><path d="M341.211 215.128l-6.589 7.848c-11.335 13.5-32.109 13.5-43.445 0l-6.589-7.848c-3.396-4.044-.521-10.212 4.759-10.212h47.105c5.28.001 8.155 6.169 4.759 10.212zM169.953 244.066a8.141 8.141 0 0 1-8.072-7.167 8.142 8.142 0 0 1 7.107-9.059l45.475-5.493a8.134 8.134 0 0 1 9.06 7.106 8.143 8.143 0 0 1-7.107 9.059l-45.475 5.493a8.11 8.11 0 0 1-.988.061zM188.698 291.914a8.141 8.141 0 0 1-5.031-14.546l36.028-28.285a8.143 8.143 0 0 1 10.055 12.808l-36.029 28.285a8.11 8.11 0 0 1-5.023 1.738zM455.847 244.066c-.327 0-.655-.02-.987-.06l-45.475-5.493a8.143 8.143 0 0 1-7.107-9.059c.54-4.465 4.606-7.647 9.06-7.106l45.475 5.493a8.143 8.143 0 0 1-.966 16.225zM437.101 291.914a8.113 8.113 0 0 1-5.023-1.738l-36.027-28.285a8.143 8.143 0 0 1 10.056-12.808l36.027 28.285a8.143 8.143 0 0 1-5.033 14.546z"/></g></svg>