<?xml version="1.0" encoding="iso-8859-1"?>
<!-- Generator: Adobe Illustrator 19.0.0, SVG Export Plug-In . SVG Version: 6.00 Build 0)  -->
<svg version="1.1" id="Layer_1" xmlns="http://www.w3.org/2000/svg" xmlns:xlink="http://www.w3.org/1999/xlink" x="0px" y="0px"
	 viewBox="0 0 511.999 511.999" style="enable-background:new 0 0 511.999 511.999;" xml:space="preserve">
<path style="fill:#D1F4FF;" d="M437.081,120.159c-48.365-48.365-112.675-75.001-181.084-75.001
	c-68.405,0-132.728,26.635-181.119,75.006c-86.215,86.258-99.573,222.315-31.772,323.513c4.322,6.45,11.577,10.321,19.343,10.321
	h387.087c7.763,0,15.014-3.869,19.337-10.318C536.709,342.474,523.338,206.414,437.081,120.159z"/>
<path style="fill:#A7E5FF;" d="M437.081,120.159C388.946,72.024,325.019,45.423,256.977,45.17V454h192.559
	c7.763,0,15.014-3.869,19.337-10.318C536.709,342.474,523.338,206.414,437.081,120.159z"/>
<path style="fill:#E68842;" d="M357.421,209.099c-9.09-9.09-23.832-9.09-32.924,0l-66.389,66.389
	c-3.286-0.779-6.708-1.204-10.228-1.204c-24.435,0-44.316,19.899-44.316,44.357s19.88,44.357,44.316,44.357
	c24.457,0,44.357-19.899,44.357-44.357c0-3.522-0.424-6.944-1.206-10.23l66.389-66.389
	C366.514,232.931,366.514,218.189,357.421,209.099z"/>
<path style="fill:#387896;" d="M256.977,138.279c-12.859,0-23.281-10.424-23.281-23.281V69.989
	c0-12.857,10.422-23.281,23.281-23.281c12.856,0,23.281,10.424,23.281,23.281v45.009
	C280.258,127.856,269.833,138.279,256.977,138.279z"/>
<path style="fill:#275366;" d="M487.256,325.161h-45.009c-12.859,0-23.281-10.424-23.281-23.281s10.422-23.281,23.281-23.281h45.009
	c12.856,0,23.281,10.424,23.281,23.281S500.111,325.161,487.256,325.161z"/>
<g>
	<path style="fill:#387896;" d="M69.752,325.161H24.743c-12.859,0-23.281-10.424-23.281-23.281S11.884,278.6,24.743,278.6h45.009
		c12.856,0,23.281,10.424,23.281,23.281S82.608,325.161,69.752,325.161z"/>
	<path style="fill:#387896;" d="M124.305,193.467c-5.96,0-11.917-2.272-16.463-6.82l-32.925-32.92c-9.09-9.092-9.09-23.832,0-32.925
		c9.09-9.09,23.832-9.09,32.924,0l32.924,32.924c9.093,9.09,9.093,23.83,0,32.924C136.22,191.195,130.262,193.467,124.305,193.467z"
		/>
</g>
<g>
	<path style="fill:#275366;" d="M387.695,193.467c-5.96,0-11.917-2.272-16.464-6.818c-9.09-9.092-9.09-23.832,0-32.925
		l32.924-32.925c9.093-9.092,23.829-9.092,32.924-0.002c9.09,9.09,9.093,23.832,0.003,32.924l-32.924,32.927
		C399.61,191.195,393.652,193.467,387.695,193.467z"/>
	<path style="fill:#275366;" d="M256.977,46.709v91.571c12.856,0,23.281-10.424,23.281-23.281V69.989
		C280.258,57.132,269.833,46.709,256.977,46.709z"/>
</g>
<path style="fill:#DD4C42;" d="M357.421,209.099L357.421,209.099L216.541,349.977c8.027,8.041,19.112,13.023,31.337,13.023
	c24.457,0,44.357-19.899,44.357-44.358c0-3.522-0.424-6.944-1.206-10.23l66.389-66.389
	C366.514,232.931,366.514,218.189,357.421,209.099z"/>
<path style="fill:#387896;" d="M360.925,420.28H151.075c-12.856,0-23.281,10.424-23.281,23.281s10.425,23.281,23.281,23.281h209.851
	c12.859,0,23.281-10.424,23.281-23.281S373.784,420.28,360.925,420.28z"/>
<path style="fill:#275366;" d="M360.925,420.28H256.977v46.561h103.948c12.859,0,23.281-10.424,23.281-23.281
	S373.784,420.28,360.925,420.28z"/>
<g>
</g>
<g>
</g>
<g>
</g>
<g>
</g>
<g>
</g>
<g>
</g>
<g>
</g>
<g>
</g>
<g>
</g>
<g>
</g>
<g>
</g>
<g>
</g>
<g>
</g>
<g>
</g>
<g>
</g>
</svg>
